# xmcd
#
# Track frame offsets:
#	150
#	13883
#	27866
#	42591
#	61747
#	76343
#	91374
#	102619
#	115997
#	131602
#	146529
#	161196
#	177448
#	190123
#	203387
#
# Disc length: 2907 seconds
#
# Revision: 1
# Processed by: cddbd v1.5.1PL0 Copyright (c) Steve Scherf et al.
# Submitted via: audiograbber 1.83.01
#
DISCID=cd0b590f
DTITLE=Various Artist - Toast To Big Bands 
DYEAR=2001
DGENRE=Big Bands
TTITLE0=Duke Ellington - East St. Louis Toodle-Oo
TTITLE1=Artie Shaw - Sweet Lorraine
TTITLE2=Jimmie Lunceford - My Blue Heaven
TTITLE3=Count Basie - One O'Clock Jump
TTITLE4=Jimmy Dorsey - All Of Me
TTITLE5=Glenn Miller - American Patrol
TTITLE6=The Casa Loma Orchestra - The Boogie Woogie Man
TTITLE7=Louis Armstrong - I Can't Give You Anything But Love
TTITLE8=Bix Beiderbecke - Mississippi Mud
TTITLE9=Count Basie - Jumpin' At The Woodside
TTITLE10=Glenn Miller - The Nearness Of You
TTITLE11=Benny Goodman - Christopher Columbus
TTITLE12=Duke Ellington - Take The 'A' Train
TTITLE13=Fletcher Henderson - King Porter Stomp
TTITLE14=Tommy Dorsey - On The Sunny Side Of The Street
EXTD=
EXTT0=
EXTT1=
EXTT2=
EXTT3=
EXTT4=
EXTT5=
EXTT6=
EXTT7=
EXTT8=
EXTT9=
EXTT10=
EXTT11=
EXTT12=
EXTT13=
EXTT14=
PLAYORDER=
